<svg id="svg-reference" xmlns="http://www.w3.org/2000/svg" viewBox="0 0 23.97 27.76"><defs><style>.cls-1,.cls-2{fill:#fff;}.cls-2{font-size:13.13px;font-family:FranklinGothic-DemiCond, Franklin Gothic Demi Cond;}</style></defs><title>Asset 5</title><g id="Layer_2" data-name="Layer 2"><g id="Layer_7" data-name="Layer 7"><g id="bottom_Bar" data-name="bottom Bar"><g id="Layer_11" data-name="Layer 11"><g id="Layer_16" data-name="Layer 16"><path class="cls-1" d="M.74,25.43C2,27,4.9,27.74,9.5,27.74c5.46,0,11.59.35,13.73-2.3a2.46,2.46,0,0,0,.59-1.71C24.89,17.38,20,11.51,17.9,9.3A2.11,2.11,0,0,0,19,7.44V7A2.09,2.09,0,0,0,17.76,5.1l.8-1c1.43-1.63.87-3,.42-3.52A1.76,1.76,0,0,0,17.48,0C15.74,0,12.94,1.36,12,1.84,11,1.34,8.21,0,6.48,0A1.75,1.75,0,0,0,5,.56c-.5.53-1.06,1.95.36,3.56l.82,1A2.1,2.1,0,0,0,4.93,7v.41A2.09,2.09,0,0,0,6.07,9.3c-2.13,2.21-7,8.08-5.92,14.44A2.42,2.42,0,0,0,.74,25.43Zm5.31-24a.72.72,0,0,1,.43-.08c1.41,0,4.22,1.33,5.19,1.85a.73.73,0,0,0,.66,0c.95-.51,3.74-1.83,5.15-1.83.3,0,.42.06.47.12s.52.73-.41,1.79l-1.4,1.67H7.82L6.42,3.25C5.49,2.2,5.92,1.59,6.05,1.43ZM17.69,7v.41a.74.74,0,0,1-.75.75H7a.74.74,0,0,1-.75-.75V7A.74.74,0,0,1,7,6.28h9.91A.75.75,0,0,1,17.69,7Zm-10,2.51h8.51c1.16,1.12,7.4,7.48,6.24,14.06a.65.65,0,0,0,0,.24,1.15,1.15,0,0,1-.34.81c-.57.65-2.31,1.75-7.61,1.75v.67l0-.67h-5c-5.3,0-7-1.1-7.61-1.75a1.13,1.13,0,0,1-.34-.79.57.57,0,0,0,0-.26C.33,17,6.57,10.66,7.73,9.54Z"/><text class="cls-2" transform="translate(8.56 22.3)">$</text></g></g></g></g></g></svg>