<svg id="svg-reference" xmlns="http://www.w3.org/2000/svg" viewBox="0 0 27.41 27.41"><defs><style>.cls-1{fill:#fff;}</style></defs><title>Asset 4</title><g id="Layer_2" data-name="Layer 2"><g id="Layer_7" data-name="Layer 7"><g id="bottom_Bar" data-name="bottom Bar"><g id="Layer_9" data-name="Layer 9"><g id="Layer_14" data-name="Layer 14"><path class="cls-1" d="M24.62,21.14h0a2.23,2.23,0,0,0-3-1.12l-3.73,1a2.4,2.4,0,0,0-1.51-1.49h0l-4.1-1.39a4.23,4.23,0,0,0-3.41-1.57,4.3,4.3,0,0,0-3.34,2H.54a.54.54,0,0,0-.54.54v6.75a.54.54,0,0,0,.54.53H3.72a.53.53,0,0,0,.53-.53v-.46h1.5a.54.54,0,0,0,.53-.54v-.15a3.77,3.77,0,0,1,2,.7,32.5,32.5,0,0,0,3.21,1.64h0a4.65,4.65,0,0,0,1.72.33A4.29,4.29,0,0,0,15,27l8.25-3h0A2.29,2.29,0,0,0,24.62,21.14ZM3.18,25.34H1.07V19.67H3.18Zm2-1h-1V19.67h1Zm17.62-1.28-8.24,3h0a3.46,3.46,0,0,1-2.67.05A31.87,31.87,0,0,1,8.77,24.5a4.87,4.87,0,0,0-2.49-.85V19.34a3.31,3.31,0,0,1,2.55-1.68,3.08,3.08,0,0,1,2.62,1.23.55.55,0,0,0,.29.23L16,20.56A1.22,1.22,0,0,1,16.87,22a1.07,1.07,0,0,1-1.29.72l-4.79-1.52a.54.54,0,0,0-.67.35.53.53,0,0,0,.35.67l4.8,1.52h0a2.39,2.39,0,0,0,.59.08,2.08,2.08,0,0,0,1-.27,2.1,2.1,0,0,0,1-1.27l0-.13L22,21c.58-.2,1.34-.27,1.68.51S23.07,23,22.83,23.07Z"/><path class="cls-1" d="M26.87,1.81H23.69a.54.54,0,0,0-.54.54v.46H21.66a.54.54,0,0,0-.53.54V3.5a3.86,3.86,0,0,1-2-.7A30.37,30.37,0,0,0,16,1.16h0a4.51,4.51,0,0,0-3.49.05L10.28,2,8.47.16a.54.54,0,0,0-.76,0l-6,6a.54.54,0,0,0,0,.76L11.93,17.06a.59.59,0,0,0,.76,0l5.44-5.44.44,0a4.29,4.29,0,0,0,3.35-2h4.95a.54.54,0,0,0,.54-.53V2.35A.54.54,0,0,0,26.87,1.81ZM8.09,1.29,9.31,2.51a2.3,2.3,0,0,1-2.44,0Zm-4,6.43L2.88,6.5,4.1,5.28A2.25,2.25,0,0,1,4.45,6.5,2.3,2.3,0,0,1,4.1,7.72Zm8.21,8.21-1.22-1.22a2.33,2.33,0,0,1,2.44,0Zm2-2a3.42,3.42,0,0,0-4,0L4.88,8.49a3.44,3.44,0,0,0,.64-2,3.4,3.4,0,0,0-.64-2L6.1,3.28a3.34,3.34,0,0,0,2,.65,3.38,3.38,0,0,0,2-.65l1.16,1.16a2.17,2.17,0,0,0-1.6,1.17,2.12,2.12,0,0,0,1.45,3.27c1.3.37,2.06.51,2.06.51L15,10a3.4,3.4,0,0,0,.57,2.71Zm2-2A2.22,2.22,0,0,1,16,10.83a4.56,4.56,0,0,0,.94.51Zm4.83-3.06a3.3,3.3,0,0,1-2.56,1.69,4.74,4.74,0,0,1-.55,0h0a3.1,3.1,0,0,1-2-1.09L16,9.36a.53.53,0,0,0-.3-.25L11.42,7.67a1.22,1.22,0,0,1-.88-1.42h0a1,1,0,0,1,.5-.63,1,1,0,0,1,.78-.09l4.8,1.52a.53.53,0,0,0,.32-1L13.13,4.82l0,0h0l-2-2,1.7-.61h0a3.49,3.49,0,0,1,2.67,0,28.78,28.78,0,0,1,3.11,1.59,4.83,4.83,0,0,0,2.49.84Zm2-.32H22.2V3.88h.95Zm3.19,0H24.23V2.88h2.11Z"/></g></g></g></g></g></svg>