<svg id="svg-reference" data-name="Capa 1" xmlns="http://www.w3.org/2000/svg" viewBox="0 0 247.46 228.09"><defs><style>.cls-1{fill:#fff;}</style></defs><title>ic_filter</title><path class="cls-1" d="M246.74,14A7.5,7.5,0,0,0,240,9.68H7.5A7.5,7.5,0,0,0,1.71,22L91.07,130.34v99.94A7.5,7.5,0,0,0,101.9,237l50.21-24.89a7.49,7.49,0,0,0,4.17-6.71l.1-75.06L245.75,22A7.51,7.51,0,0,0,246.74,14ZM143.1,122.87a7.54,7.54,0,0,0-1.72,4.76l-.09,73.11-35.21,17.45V127.64a7.51,7.51,0,0,0-1.72-4.77l-81-98.19H224.05Z" transform="translate(0 -9.68)"/></svg>