<svg id="svg-reference" xmlns="http://www.w3.org/2000/svg" viewBox="0 0 32 32"><defs><style>.cls-1{fill:#0052cc;}</style></defs><title>Asset 2</title><g id="Layer_2" data-name="Layer 2"><g id="Layer_2-2" data-name="Layer 2"><path class="cls-1" d="M16,2.13A13.87,13.87,0,1,1,2.13,16,13.88,13.88,0,0,1,16,2.13M16,0A16,16,0,1,0,32,16,16,16,0,0,0,16,0Z"/><path class="cls-1" d="M18.82,22c0,.29-.68,1-2,2a6.26,6.26,0,0,1-3.69,1.59A2.08,2.08,0,0,1,11.44,25a1.91,1.91,0,0,1-.51-1.31,2.61,2.61,0,0,1,.13-.85c.09-.26.19-.53.3-.8l2.57-5.32a7.69,7.69,0,0,0,.31-.74,1.71,1.71,0,0,0,.09-.5.43.43,0,0,0-.08-.31.24.24,0,0,0-.21-.1c-.24,0-.69.36-1.37,1.07s-1.07,1.07-1.2,1.07a.58.58,0,0,1-.43-.3,1,1,0,0,1-.22-.38,1.82,1.82,0,0,1,.51-.88,13.23,13.23,0,0,1,1.3-1.28,9.42,9.42,0,0,1,1.69-1.16,3.75,3.75,0,0,1,1.74-.54,2.32,2.32,0,0,1,1.83.69A2.45,2.45,0,0,1,18.5,15a4.41,4.41,0,0,1-.09.86,3,3,0,0,1-.35,1l-2,4.51c-.16.38-.28.69-.35.92a2.13,2.13,0,0,0-.11.49.22.22,0,0,0,.08.2.32.32,0,0,0,.16,0,2.12,2.12,0,0,0,1.39-.85c.54-.57.87-.85,1-.85a.56.56,0,0,1,.4.28A.87.87,0,0,1,18.82,22Z"/><path class="cls-1" d="M20.9,8a2.38,2.38,0,0,1-.72,1.73,2.31,2.31,0,0,1-1.74.73,2.35,2.35,0,0,1-1.73-.73,2.41,2.41,0,0,1,0-3.46,2.35,2.35,0,0,1,1.73-.73,2.31,2.31,0,0,1,1.74.73A2.38,2.38,0,0,1,20.9,8Z"/></g></g></svg>