<svg id="svg-reference" xmlns="http://www.w3.org/2000/svg" viewBox="0 0 16 16"><defs><style>.cls-1{fill:#0052cc;}</style></defs><title>Asset 4</title><g id="Layer_2" data-name="Layer 2"><g id="Layer_3" data-name="Layer 3"><path class="cls-1" d="M8,0a8,8,0,1,0,8,8A8,8,0,0,0,8,0Zm.39,12a3.09,3.09,0,0,1-1.84.8,1,1,0,0,1-.83-.29,1,1,0,0,1-.26-.65,1.43,1.43,0,0,1,.07-.43l.15-.4L7,8.37A2.41,2.41,0,0,0,7.12,8a.92.92,0,0,0,0-.25.34.34,0,0,0,0-.16.15.15,0,0,0-.11,0c-.12,0-.35.17-.68.53s-.54.53-.61.53-.14,0-.21-.15a.57.57,0,0,1-.11-.18.91.91,0,0,1,.26-.44,5,5,0,0,1,.65-.65,4.74,4.74,0,0,1,.84-.58A1.87,1.87,0,0,1,8,6.34a1.14,1.14,0,0,1,.91.35,1.17,1.17,0,0,1,.31.83,3.44,3.44,0,0,1,0,.43A1.62,1.62,0,0,1,9,8.42L8,10.68a3.49,3.49,0,0,0-.17.46,1,1,0,0,0-.06.24c0,.06,0,.09.05.1a.11.11,0,0,0,.08,0,1.07,1.07,0,0,0,.69-.42c.27-.28.44-.43.51-.43s.13,0,.2.15a.49.49,0,0,1,.11.19C9.41,11.14,9.07,11.47,8.39,12Zm1.7-7.12a1.2,1.2,0,0,1-1.73,0,1.18,1.18,0,0,1,0-1.72,1.2,1.2,0,0,1,1.73,0,1.21,1.21,0,0,1,0,1.72Z"/></g></g></svg>