<svg id="svg-reference" xmlns="http://www.w3.org/2000/svg" viewBox="0 0 90 90"><title>Asset 1</title><g id="Layer_2" data-name="Layer 2"><g id="Layer_1-2" data-name="Layer 1"><path d="M45,6A39,39,0,1,1,6,45,39.05,39.05,0,0,1,45,6m0-6A45,45,0,1,0,90,45,45,45,0,0,0,45,0Z"/><path d="M52.93,61.83q0,1.22-5.74,5.7T36.82,72c-2.13,0-3.67-.54-4.64-1.63a5.44,5.44,0,0,1-1.44-3.69,7.09,7.09,0,0,1,.38-2.39c.25-.74.53-1.48.83-2.24l7.22-15A19.23,19.23,0,0,0,40.05,45a4.71,4.71,0,0,0,.26-1.4,1.37,1.37,0,0,0-.22-.88.8.8,0,0,0-.61-.26q-1,0-3.84,3t-3.38,3A1.65,1.65,0,0,1,31,47.62a3.14,3.14,0,0,1-.61-1.07,5,5,0,0,1,1.45-2.47,32.91,32.91,0,0,1,3.65-3.61,26.32,26.32,0,0,1,4.75-3.27,10.49,10.49,0,0,1,4.9-1.52,6.49,6.49,0,0,1,5.13,1.94A6.82,6.82,0,0,1,52,42.3a14.2,14.2,0,0,1-.23,2.43,8.44,8.44,0,0,1-1,2.66L45,60.08a25.21,25.21,0,0,0-1,2.58A5.45,5.45,0,0,0,43.73,64c0,.31.08.5.23.57a1,1,0,0,0,.46.12c1.11,0,2.42-.8,3.91-2.4s2.45-2.39,2.85-2.39.74.26,1.14.8A2.48,2.48,0,0,1,52.93,61.83Z"/><path d="M58.78,22.61a6.69,6.69,0,0,1-2,4.86,6.82,6.82,0,0,1-9.77,0,6.79,6.79,0,0,1,0-9.72,6.9,6.9,0,0,1,11.78,4.86Z"/></g></g></svg>