<svg id="svg-reference" xmlns="http://www.w3.org/2000/svg" viewBox="0 0 22.38 28.46"><defs><style>.cls-1{fill:#fff;stroke:#fff;stroke-miterlimit:10;stroke-width:0.3px;}</style></defs><title>Asset 3</title><g id="Layer_2" data-name="Layer 2"><g id="Layer_7" data-name="Layer 7"><g id="bottom_Bar" data-name="bottom Bar"><g id="Layer_10" data-name="Layer 10"><path class="cls-1" d="M20.47,9.05a.45.45,0,0,0-.45-.4h-.9v-8a.44.44,0,0,0-.43-.46H12.25a.49.49,0,0,0-.49.46V3.2H9.58V2.05a.43.43,0,0,0-.43-.46H3.69a.49.49,0,0,0-.49.46v6.6H2.36a.45.45,0,0,0-.45.4L.17,24.1A3.65,3.65,0,0,0,1.1,27a4.09,4.09,0,0,0,3,1.34h14.1a4.09,4.09,0,0,0,3-1.34,3.61,3.61,0,0,0,.92-2.87Zm-7.79-8H18.2V8.65H13.77v-5a.43.43,0,0,0-.43-.46h-.66Zm.18,7.58h-5V4.11h5ZM4.12,2.51H8.66V3.2H7.43a.48.48,0,0,0-.49.46v5H4.12ZM20.59,26.35a3.15,3.15,0,0,1-2.35,1H4.14a3.14,3.14,0,0,1-2.35-1,2.68,2.68,0,0,1-.7-2.14L2.77,9.57H19.61l1.68,14.64A2.68,2.68,0,0,1,20.59,26.35Z"/><path class="cls-1" d="M16.59,11a.47.47,0,0,0-.46.46v4.76a4.64,4.64,0,0,1-4.77,4.48,4.64,4.64,0,0,1-4.77-4.48V11.41A.46.46,0,0,0,6.13,11a.47.47,0,0,0-.46.46v4.76a5.57,5.57,0,0,0,5.69,5.4,5.57,5.57,0,0,0,5.69-5.4V11.41A.47.47,0,0,0,16.59,11Z"/></g></g></g></g></svg>