<svg id="svg-reference" xmlns="http://www.w3.org/2000/svg" viewBox="0 0 27.88 27.88"><defs><style>.cls-1{fill:#fff;stroke:#fff;stroke-miterlimit:10;stroke-width:0.3px;}</style></defs><title>Asset 7</title><g id="Layer_2" data-name="Layer 2"><g id="Layer_7" data-name="Layer 7"><g id="bottom_Bar" data-name="bottom Bar"><g id="Layer_13" data-name="Layer 13"><path class="cls-1" d="M26.48,10h-.3V8.77a1.25,1.25,0,0,0-1.25-1.25H19.16L20,7.18l0-.5V5.84l-.35-.69-1-.3a4.58,4.58,0,0,0-.43-1l.48-.94a.41.41,0,0,0-.09-.48l-.9-.9a.41.41,0,0,0-.48-.09l-.95.47a5.64,5.64,0,0,0-1-.43L15,.45a.43.43,0,0,0-.39-.3h-1.3a.41.41,0,0,0-.38.3l-.35,1a5.64,5.64,0,0,0-1,.43l-.95-.47a.38.38,0,0,0-.47.09l-.91.9a.42.42,0,0,0-.09.48l.48.94a5.09,5.09,0,0,0-.43,1l-1,.38-.46.66,0,1,1,.62H3A1.25,1.25,0,0,0,1.7,8.77V10H1.4A1.25,1.25,0,0,0,.15,11.27V26.48A1.25,1.25,0,0,0,1.4,27.73H26.48a1.25,1.25,0,0,0,1.25-1.25V11.27A1.25,1.25,0,0,0,26.48,10Zm.43,1.25v3.32a4.23,4.23,0,0,1-3.75-3.75h3.32A.49.49,0,0,1,26.91,11.27ZM10,10.88l.13.13a.41.41,0,0,0,.47.09l.95-.48a5,5,0,0,0,1,.43l.35,1a.4.4,0,0,0,.38.31h1.3A.42.42,0,0,0,15,12l.34-1a5,5,0,0,0,1-.43l.95.48a.41.41,0,0,0,.48-.09l.13-.13H22.3a5,5,0,0,0,4.57,4.57V22.3a5,5,0,0,0-4.57,4.57H5.58A5,5,0,0,0,1,22.3V15.45a5,5,0,0,0,4.57-4.57ZM25.36,8.77V10H18.72a.4.4,0,0,0,.05-.43l-.48-.95c.05-.09.09-.22.13-.3h6.51A.45.45,0,0,1,25.36,8.77ZM9.63,5.58a.36.36,0,0,0,.26-.3A3.58,3.58,0,0,1,10.41,4a.35.35,0,0,0,0-.39L10,2.78l.47-.48.86.44a.44.44,0,0,0,.39,0A5.39,5.39,0,0,1,13,2.22a.44.44,0,0,0,.3-.26l.3-.95h.69l.3,1a.39.39,0,0,0,.31.26,3.4,3.4,0,0,1,1.25.52.33.33,0,0,0,.38,0l.91-.44.47.48-.43.86a.44.44,0,0,0,0,.39A5.21,5.21,0,0,1,18,5.28a.44.44,0,0,0,.26.3l.95.3v.69l-.91.3a.39.39,0,0,0-.26.3,2.86,2.86,0,0,1-.52,1.21.35.35,0,0,0,0,.39l.44.9-.48.48-.9-.43a.39.39,0,0,0-.39,0,5.37,5.37,0,0,1-1.25.51.46.46,0,0,0-.3.26l-.3.95H13.6l-.31-.95a.36.36,0,0,0-.3-.26,3.38,3.38,0,0,1-1.25-.51.32.32,0,0,0-.39,0l-.86.43L10,9.67l.43-.9a.41.41,0,0,0,0-.39,5.66,5.66,0,0,1-.52-1.21.48.48,0,0,0-.26-.3l-.94-.3V5.88ZM2.52,8.77A.43.43,0,0,1,3,8.34H9.46c0,.08.08.21.13.3l-.48.95a.4.4,0,0,0,.05.43H2.52ZM1.4,10.88H4.72A4.23,4.23,0,0,1,1,14.63V11.31A.43.43,0,0,1,1.4,10.88ZM1,26.48V23.16a4.23,4.23,0,0,1,3.75,3.75H1.4A.45.45,0,0,1,1,26.48Zm25.51.43H23.16a4.23,4.23,0,0,1,3.75-3.75v3.32A.45.45,0,0,1,26.48,26.91Z"/><path class="cls-1" d="M13.94,8.68A2.45,2.45,0,0,0,16.4,6.23a2.42,2.42,0,0,0-2.46-2.42,2.46,2.46,0,0,0-2.46,2.46A2.42,2.42,0,0,0,13.94,8.68Zm0-4a1.59,1.59,0,0,1,1.6,1.6,1.6,1.6,0,0,1-3.19,0A1.59,1.59,0,0,1,13.94,4.63Z"/><path class="cls-1" d="M14.37,19.5l4-3-4-3V15H11v.74h4.09V15l2,1.49-2,1.48v-.74H9.55V18h4.82Z"/><path class="cls-1" d="M13.51,19.75l-4,3,4,3V24.2h3.34v-.74H12.76v.74l-2-1.48,2-1.49V22h5.58v-.75H13.51Z"/></g></g></g></g></svg>