<svg id="svg-reference" xmlns="http://www.w3.org/2000/svg" viewBox="0 0 100.12 53.92"><defs><style>.cls-1{fill:#d71920;}.cls-1,.cls-2{fill-rule:evenodd;}.cls-2,.cls-3{fill:#0066b3;}</style></defs><title>Asset 5</title><g id="Layer_2" data-name="Layer 2"><g id="Layer_7" data-name="Layer 7"><polygon class="cls-1" points="14.44 0 13.35 4.58 8.07 4.58 12.57 7.94 11.59 12.08 14.82 9.64 20.04 13.52 17.56 7.56 21.48 4.58 16.35 4.58 14.44 0"/><path class="cls-2" d="M2.1,30.23C1.44,33.18.79,35.73.15,38.66c10.17,3.2,18.81.1,24.24-7.79l-2.12,8.91c1.49,0,2.8,0,4.75,0,3.25-.1,6.54-2.59,8.65-5.22,1.4-1.74,2.78-3.46,4.16-5.2-.43,1.83-.79,3.31-1.21,5.14-.75,3.56,1.8,5.24,4.71,5.28H56.75l2.86-12H64c1.87.08,1.93,1.67,1.63,3.48-.21,1.12-.76,2.76-2,2.74H59.55L61,39.78l7,0c3-.06,4.71-1.95,5.43-4.56a23,23,0,0,0,.66-4.58A5.53,5.53,0,0,0,70.25,25c2-.32,3.14-2.32,3.59-4.12a13,13,0,0,0,.31-5c-.53-3.71-3.41-6.26-9-6.26H46.49L42.18,15.2c8.09,0,14.84,0,22.95,0,1.78,0,2.08,1.59,1.83,3.08-.34,1.93-.66,3.65-2.49,3.78H61l1.13-4.8H53.48L49.44,34h-.89c-1,0-1.29-.7-1.06-1.78l3.61-15H40.55c-2.23,2.8-5.59,6.56-7.81,9.36l4-17H27.43C21.21,27.24,13.08,34.39,2.1,30.23Z"/><path class="cls-3" d="M71.92,30H80.5a4.41,4.41,0,0,0,.62,2.46,4.55,4.55,0,0,0,4,2c1.76,0,4.61-.73,5-2.81.48-2.88-2.89-3.56-5-4.18-4-1.19-7-2.31-8.24-3.42a5.14,5.14,0,0,1-1.53-5.26A11.38,11.38,0,0,1,79.65,12c-.72,3.1,1.13,6.5,3.46,7.48a47.39,47.39,0,0,0,7,2.14c5.16,1.51,9.64,3.57,8.81,9.53-.53,4-3.19,6.65-6.94,8a25.39,25.39,0,0,1-8.22,1q-7.52-.23-9.87-3.12A8.85,8.85,0,0,1,71.92,30Z"/><path class="cls-3" d="M87.17,9.51a41.23,41.23,0,0,1,4.33,0,10.93,10.93,0,0,1,7.39,3.1c1.16,1.3,1.72,4.12.65,6.86H91.48a3.08,3.08,0,0,0-2.93-4.21,4.83,4.83,0,0,0-2.53.53c-1.36.77-2.1,2.85-1.17,3.91A6.11,6.11,0,0,1,81.46,17C79.35,12.65,81.86,9.85,87.17,9.51Z"/><path class="cls-2" d="M59,48.15h-.19l-.07,0s-.06,0-.08,0a.16.16,0,0,0-.09,0l-.12.07h0a2.11,2.11,0,0,0-.22.14.66.66,0,0,0-.19.22s0,0,0,.06,0,0,0,.06a3.84,3.84,0,0,0-.22.39l-.08.29-.11.34v.07c0,.08,0,.15,0,.21v.06s0,0,0,0v.3a1.06,1.06,0,0,0,0,.24,2.33,2.33,0,0,0,.07.25.52.52,0,0,0,.25.32.94.94,0,0,0,.49.13l.06,0h0a1,1,0,0,0,.24,0l0,0a.25.25,0,0,0,.17-.06.39.39,0,0,0,.21-.13.72.72,0,0,0,.21-.19.69.69,0,0,0,.11-.13.42.42,0,0,1,.08-.12,3.35,3.35,0,0,0,.34-.94,2,2,0,0,0,0-1.23A.74.74,0,0,0,59,48.15Z"/><path class="cls-2" d="M88.17,50.44a.23.23,0,0,0-.09-.08.5.5,0,0,0-.08-.07l-.13,0H87l-.19,1h.72a.67.67,0,0,0,.49-.15l.12-.13a.48.48,0,0,0,.09-.19v-.08l0,0c0-.05,0-.11,0-.15A.36.36,0,0,0,88.17,50.44Z"/><polygon class="cls-2" points="64.96 49.13 64.37 50.27 64.96 50.27 65.58 50.27 65.39 48.36 64.96 49.13"/><path class="cls-2" d="M88.42,49a.59.59,0,0,0,.15-.34.25.25,0,0,0-.07-.3s0,0-.08-.06a.72.72,0,0,0-.32-.07h-.68l-.19.92h.68a.69.69,0,0,0,.45-.11S88.4,49,88.42,49Z"/><path class="cls-2" d="M0,44.79v9.13H100.12V44.79Zm66,.92h1.28l-1.23.91H65.2Zm-40.18,0h1.27l-1.42.91H25ZM15.29,48.59c0,.07,0,.13,0,.19l0,0v0H13.61l0-.06v-.15a.37.37,0,0,0-.15-.32s0,0-.06,0-.05,0-.07,0a.82.82,0,0,0-.4-.1,1.36,1.36,0,0,0-.51.1,1.07,1.07,0,0,0-.36.32,1.28,1.28,0,0,0-.13.21c0,.09-.08.17-.13.3s0,.07,0,.09,0,.06,0,.1a3.47,3.47,0,0,0-.15.56,3.23,3.23,0,0,0-.08.72,1.2,1.2,0,0,0,.12.57.46.46,0,0,0,.34.23.68.68,0,0,0,.2,0h.12v0h.13l.11,0a.75.75,0,0,0,.38-.17l.06,0s0,0,0-.06a.91.91,0,0,0,.22-.39l0,0h1.61l0,.07a2,2,0,0,1-.28.7,2,2,0,0,1-.53.55v0L14,52l-.11.07a6.35,6.35,0,0,1-.61.25.37.37,0,0,0-.15,0c-.05,0-.09,0-.13,0a3.42,3.42,0,0,1-.81.08,2.82,2.82,0,0,1-.42,0,2.11,2.11,0,0,1-.38,0,.23.23,0,0,0-.11,0,.09.09,0,0,0-.08,0,2,2,0,0,1-.43-.17,1.82,1.82,0,0,1-.45-.38,1.47,1.47,0,0,1-.27-.53.15.15,0,0,1,0-.08.23.23,0,0,1,0-.11,1.45,1.45,0,0,1-.07-.47v-.21a1.79,1.79,0,0,1,.07-.51.65.65,0,0,1,0-.21,1.07,1.07,0,0,0,0-.21c.11-.34.21-.64.32-.89,0,0,.06-.11.08-.15l.07-.13a2.54,2.54,0,0,1,.53-.6,3.93,3.93,0,0,1,.42-.29,3.71,3.71,0,0,1,.49-.24,2.44,2.44,0,0,1,.55-.12,2.09,2.09,0,0,1,.58-.05h.4a.27.27,0,0,0,.15,0h.13a.18.18,0,0,0,.1,0h0l.13,0a.33.33,0,0,1,.13,0l.1,0a.5.5,0,0,1,.13.05,1.42,1.42,0,0,1,.49.25,1,1,0,0,1,.23.25,1.82,1.82,0,0,1,.15.32l0,.34Zm6.19-1.38-1.06,5.12v0H18.85l0-.06.43-2H17.64l-.42,2.06v0H15.67v-.06l1.06-5.12v0H18.3v.06l-.4,2h1.61l.4-2,0,0h1.55Zm4.84,4.7-.1.06s-.09.06-.11.08a2.48,2.48,0,0,1-.68.28,2.45,2.45,0,0,1-.55.13,5.47,5.47,0,0,1-.59,0,2.7,2.7,0,0,1-1-.15,1.87,1.87,0,0,1-.72-.4,1.07,1.07,0,0,1-.15-.17l-.13-.19a1.78,1.78,0,0,1-.13-1.17l.68-3.23v0h1.55l0,.06-.64,3.08a.39.39,0,0,1,0,.15v.13a.84.84,0,0,0,.11.53l.06.06.07.07a.88.88,0,0,0,.55.14c.66,0,1.06-.38,1.23-1.12l.62-3.06,0,0h1.55v.06l-.05.23a.27.27,0,0,0,.17-.12.84.84,0,0,0,.13-.51h.53a1,1,0,0,1-.25.74,1,1,0,0,1-.66.3l-.53,2.55A2.71,2.71,0,0,1,26.32,51.91Zm8.09-4.7-1.06,5.12v0h-2.1v0l-.89-3.65-.77,3.65v0H28.17l0-.06,1-5.12,0,0h2.11l0,0,.89,3.59L33,47.19v0h1.4Zm6.1,1.53,0,.07H39v-.26a.42.42,0,0,0-.22-.3,0,0,0,0,1,0,0h0l-.19-.06h-.11a1.06,1.06,0,0,0-.27,0,1.35,1.35,0,0,0-.28,0h0l-.21.09-.09,0s0,0-.06,0a1.31,1.31,0,0,0-.3.32,2.07,2.07,0,0,0-.19.25c0,.09-.11.19-.15.28s0,.06,0,.08,0,.07,0,.11a1.61,1.61,0,0,0-.13.49.65.65,0,0,0,0,.19v.42l0,0s0,.08,0,.14a.84.84,0,0,0,.15.28.79.79,0,0,0,.25.23s0,0,0,0l0,0,.23.08a.07.07,0,0,1,.06,0h0a1.67,1.67,0,0,0,.32,0l.36,0h.06l.11,0,.1,0,.09,0,.17-.83H37.58l0-.06.21-1v0h2.61l0,.06-.55,2.74v0H39.8l-.78.13c-.23,0-.49.06-.72.09l-.3,0a1.83,1.83,0,0,0-.32,0h-.19a2.76,2.76,0,0,1-.38,0l-.38,0a1.13,1.13,0,0,1-.34-.09l-.11,0-.08,0a2.86,2.86,0,0,1-.43-.21h0a4,4,0,0,1-.42-.4,1.7,1.7,0,0,1-.3-.53s0-.05,0-.09,0,0,0-.08a1.41,1.41,0,0,1-.07-.49A2.17,2.17,0,0,1,35,49.8c0-.06,0-.1,0-.14a1,1,0,0,1,0-.15,2.88,2.88,0,0,1,.3-.73l.06-.12a.34.34,0,0,1,.09-.13,3.4,3.4,0,0,1,.5-.64,2.68,2.68,0,0,1,.26-.23,2.26,2.26,0,0,1,.28-.19,3.53,3.53,0,0,1,1.8-.43,7.12,7.12,0,0,1,1,.07,2.34,2.34,0,0,1,.4.1l.34.17a1,1,0,0,1,.43.53A1.93,1.93,0,0,1,40.51,48.74Zm8.06,3.63h-1.8l0,0L45.66,49.8l-.53,2.53,0,0H43.58v-.06l1.07-5.12v0h1.54l0,.06-.4,2,2-2.08,0,0h1.84l-.1.11-2.21,2.2,1.34,2.83,0,.08Zm6.75-5.16-1,5.12,0,0H52.71l0-.06.41-2H51.5l-.42,2.06v0H49.51l0-.06,1.06-5.12v0h1.57l0,.06-.4,2h1.63l.4-2,0,0h1.54Zm6.12,2.59a.48.48,0,0,1,0,.15,1.3,1.3,0,0,1,0,.15,4.49,4.49,0,0,1-.29.72,2.52,2.52,0,0,1-.3.45,3.61,3.61,0,0,1-.38.42A3,3,0,0,1,60,52a2.61,2.61,0,0,1-.53.26l-.15.06-.17,0a1.67,1.67,0,0,1-.4.07,3.74,3.74,0,0,1-.49,0A3.39,3.39,0,0,1,57,52.29c-.15-.09-.3-.17-.43-.26a2.13,2.13,0,0,1-.33-.34v0a.26.26,0,0,1-.07-.1l-.06-.11a1.5,1.5,0,0,1-.19-.64l0-.49a2.49,2.49,0,0,1,.06-.5,1.67,1.67,0,0,1,.08-.32,3,3,0,0,1,.11-.32A3.65,3.65,0,0,1,57,47.83a2.43,2.43,0,0,1,1-.59,3,3,0,0,1,.72-.17,3.76,3.76,0,0,1,.59,0,3.42,3.42,0,0,1,.66.07l.11,0a3.53,3.53,0,0,1,.49.17.87.87,0,0,1,.14.08.53.53,0,0,1,.15.11,1.65,1.65,0,0,1,.53.7v0s0,.07.05.09,0,.06,0,.1a2,2,0,0,1,.08.51A3.47,3.47,0,0,1,61.44,49.8Zm6.09,2.57H65.9l0,0-.12-1h-2l-.53,1,0,0H61.61l.06-.08,3.08-5.12,0,0H66.6l0,0,1,5.12,0,.06Zm7.2-5.16-1.06,5.12v0H71.56v0l-.89-3.65-.76,3.65v0H68.49l0-.06,1-5.12,0,0h2.1l0,0,.89,3.59.72-3.59,0,0h1.4Zm10,0-1,5.12,0,0H82.24l0-.06.79-3.89-1.91,3.93,0,0H79.74v0l-.22-3.93-.82,3.93v0H77.32l0-.06,1-5.12,0,0h2.38v0l.12,3.23,1.43-3.23,0,0H84.7Zm5.54,1.15v0l0,.15a1.39,1.39,0,0,1-.12.38,1.83,1.83,0,0,1-.26.32,1.32,1.32,0,0,1-.44.3.84.84,0,0,1-.2.08l-.14.07h0l.12.06h0l.06,0,.06,0a.59.59,0,0,1,.26.2s0,0,0,0l0,0a.77.77,0,0,1,.15.3,1.23,1.23,0,0,1,0,.27,1.42,1.42,0,0,1,0,.28l-.12.38a1.4,1.4,0,0,1-.2.32,1.16,1.16,0,0,1-.34.32,2.54,2.54,0,0,1-.76.34,4.21,4.21,0,0,1-.89.08H85l0-.06,1-5.12,0,0h2.34c.21,0,.42,0,.64,0a.12.12,0,0,0,.08,0l0,0a1.8,1.8,0,0,1,.47.12,1,1,0,0,1,.47.36A1.17,1.17,0,0,1,90.22,48.36Z"/></g></g></svg>