<svg id="svg-reference" viewBox="0 -11 488.46914 488" xmlns="http://www.w3.org/2000/svg">
  <path d="m475.507812 243.59375c-11.476562-6.988281-26.269531-5.082031-35.597656 4.59375l-107.746094 107.75c-4.933593-4.210938-11.195312-6.546875-17.679687-6.589844l-163.199219-7.960937-47.617187-11.878907c-11.871094-2.949218-24.378907-1.945312-35.632813 2.855469l-37.964844 16.289063c-4.011718 1.722656-7.144531 5.003906-8.683593 9.085937l-20.390625 54.34375c-2.738282 7.414063.3125 15.722657 7.199218 19.601563l59.527344 33.070312c2.355469 1.3125 5.011719 2 7.707032 1.992188 5.359374.011718 10.375-2.648438 13.375-7.09375l9.542968-14.304688h243.722656c2.347657-.003906 4.574219-1.035156 6.09375-2.824218l132.054688-155.464844c5.320312-5.207032 8.296875-12.347656 8.25-19.792969-.011719-9.582031-4.894531-18.5-12.960938-23.671875zm-459.527343 174.105469 15.9375-42.503907 51.75 63.296876-8.191407 12.277343zm452.550781-141.527344-130.167969 153.175781h-240c-.445312 0-.878906.125-1.320312.160156l-55.832031-68.234374 33.144531-14.207032c8.042969-3.417968 16.980469-4.132812 25.464843-2.039062l48.3125 12.078125c.503907.128906 1.023438.207031 1.542969.234375l164.394531 8.007812c4.203126-.003906 8.105469 2.183594 10.300782 5.765625.089844.175781.167968.359375.265625.539063.945312 1.746094 1.4375 3.707031 1.433593 5.695312-.003906 3.183594-1.257812 6.238282-3.496093 8.503906-2.402344 2.335938-5.644531 3.597657-8.992188 3.496094l-132.503906 8.0625c-12.144531 1.515625-24.449219-.949218-35.074219-7.023437-2.492187-1.519531-5.617187-1.558594-8.148437-.101563-2.53125 1.453125-4.066407 4.171875-4.007813 7.09375.054688 2.917969 1.699219 5.574219 4.285156 6.925782 8.304688 4.734374 17.460938 7.785156 26.945313 8.976562 5.796875.742188 11.667969.765625 17.46875.066406l131.523437-8c8.773438 0 17.042969-4.113281 22.335938-11.113281s7-16.078125 4.605469-24.519531l110.207031-110.207032c4.011719-4.320312 10.449219-5.34375 15.601562-2.480468 3.523438 2.207031 5.660157 6.078125 5.648438 10.238281-.019531 3.386719-1.445312 6.609375-3.9375 8.90625zm0 0"/>
  <path d="m374.554688 53.347656c24.488281 0 29.113281 4.621094 29.113281 29.109375 0 4.417969 3.582031 8 8 8s8-3.582031 8-8c0-24.488281 4.625-29.109375 29.113281-29.109375 4.417969 0 8-3.582031 8-8 0-4.417968-3.582031-8-8-8-24.488281 0-29.113281-4.625-29.113281-29.113281 0-4.417969-3.582031-8-8-8s-8 3.582031-8 8c0 24.488281-4.625 29.113281-29.113281 29.113281-4.417969 0-8 3.582032-8 8 0 4.417969 3.582031 8 8 8zm37.113281-12.394531c1.285156 1.636719 2.761719 3.113281 4.402343 4.394531-1.640624 1.28125-3.117187 2.753906-4.402343 4.390625-1.28125-1.636719-2.761719-3.109375-4.398438-4.390625 1.636719-1.28125 3.117188-2.757812 4.398438-4.394531zm0 0"/>
  <path d="m435.667969 98.792969c0-4.417969-3.582031-8-8-8s-8 3.582031-8 8c0 10.058593-.496094 10.554687-10.550781 10.554687-4.417969 0-8 3.582032-8 8 0 4.417969 3.582031 8 8 8 10.054687 0 10.550781.496094 10.550781 10.550782 0 4.417968 3.582031 8 8 8s8-3.582032 8-8c0-10.054688.496093-10.550782 10.550781-10.550782 4.421875 0 8-3.582031 8-8 0-4.417968-3.578125-8-8-8-10.054688 0-10.550781-.496094-10.550781-10.554687zm0 0"/>
  <path d="m321.117188 37.347656c10.054687 0 10.550781.496094 10.550781 10.550782 0 4.417968 3.582031 8 8 8s8-3.582032 8-8c0-10.054688.496093-10.550782 10.550781-10.550782 4.421875 0 8-3.582031 8-8 0-4.417968-3.578125-8-8-8-10.054688 0-10.550781-.496094-10.550781-10.554687 0-4.417969-3.582031-8-8-8s-8 3.582031-8 8c0 10.058593-.496094 10.554687-10.550781 10.554687-4.417969 0-8 3.582032-8 8 0 4.417969 3.582031 8 8 8zm0 0"/>
  <path d="m75.667969 357.347656h16v16h-16zm0 0"/>
  <path d="m99.667969 357.347656h16v16h-16zm0 0"/>
  <path d="m75.667969 381.347656h16v16h-16zm0 0"/>
  <path d="m131.667969 317.347656h224c2.222656.003906 4.351562-.914062 5.867187-2.542968 1.519532-1.625 2.292969-3.808594 2.132813-6.027344l-16-224c-.296875-4.195313-3.792969-7.441406-8-7.429688h-40v-16c0-30.929687-25.070313-56-56-56-30.925781 0-56 25.070313-56 56v16h-40c-4.203125-.011718-7.699219 3.234375-8 7.429688l-16 224c-.15625 2.21875.617187 4.402344 2.132812 6.027344 1.519531 1.628906 3.644531 2.546874 5.867188 2.542968zm72-256c0-22.09375 17.910156-40 40-40 22.09375 0 40 17.90625 40 40v16h-80zm0 32h80v8h-80zm-48.550781 0h32.550781v16c0 4.417969 3.582031 8 8 8h96c4.417969 0 8-3.582031 8-8v-16h32.550781l14.859375 208h-206.816406zm0 0"/><path d="m323.667969 277.347656h16v16h-16zm0 0"/>
  <path d="m299.667969 277.347656h16v16h-16zm0 0"/>
  <path d="m323.667969 253.347656h16v16h-16zm0 0"/>
  <path d="m243.667969 141.347656c-35.34375 0-64 28.652344-64 64 0 35.34375 28.65625 64 64 64 35.347656 0 64-28.65625 64-64-.039063-35.332031-28.667969-63.960937-64-64zm0 112c-26.507813 0-48-21.492187-48-48 0-26.511718 21.492187-48 48-48 26.511719 0 48 21.488282 48 48-.027344 26.496094-21.5 47.972656-48 48zm0 0"/>
  <path d="m261.421875 176.347656-26.402344 33.023438-9.679687-9.679688c-3.136719-3.03125-8.128906-2.988281-11.214844.097656-3.085938 3.085938-3.128906 8.074219-.097656 11.214844l16 16c1.496094 1.496094 3.523437 2.339844 5.640625 2.34375h.449219c2.269531-.128906 4.378906-1.214844 5.800781-2.992187l32-40c2.761719-3.453125 2.203125-8.488281-1.25-11.25-3.449219-2.761719-8.484375-2.203125-11.246094 1.25zm0 0"/>
</svg>
